<?xml version="1.0" standalone="no"?>
<!DOCTYPE svg PUBLIC "-//W3C//DTD SVG 20010904//EN"
 "http://www.w3.org/TR/2001/REC-SVG-20010904/DTD/svg10.dtd">
<svg version="1.0" xmlns="http://www.w3.org/2000/svg"
 width="80.000000pt" height="128.000000pt" viewBox="0 0 804.000000 1280.000000"
 preserveAspectRatio="xMidYMid meet">
<g transform="translate(0.000000,1280.000000) scale(0.100000,-0.100000)"
fill="#000000" stroke="none">
<path d="M220 12784 c-215 -78 -285 -320 -147 -506 27 -36 82 -74 143 -98 l49
-19 -83 -1 c-79 0 -85 -2 -114 -30 -25 -26 -29 -36 -24 -63 9 -46 37 -68 90
-74 l46 -6 0 -5993 0 -5994 135 0 135 0 0 3780 c0 2079 2 3780 4 3780 3 0 40
-16 83 -36 320 -147 665 -242 1053 -290 197 -24 598 -29 835 -10 494 40 954
128 1918 367 782 194 1290 287 1742 320 235 17 678 7 874 -20 391 -55 649
-131 1069 -318 9 -4 12 441 12 2209 l0 2214 -132 58 c-607 267 -1270 350
-2073 260 -387 -43 -841 -135 -1685 -343 -746 -183 -1166 -264 -1625 -313
-187 -20 -796 -17 -959 5 -377 51 -706 143 -1011 281 l-96 43 47 6 c53 6 81
28 90 74 5 27 1 37 -24 63 -29 29 -34 30 -114 30 l-83 0 59 25 c85 35 132 80
174 165 23 46 27 68 27 135 -1 71 -4 87 -34 143 -38 70 -70 101 -144 138 -65
34 -172 41 -237 18z"/>
</g>
</svg>
